<?xml version="1.0" encoding="UTF-8"?>
<svg id="Layer_1" xmlns="http://www.w3.org/2000/svg" version="1.1" viewBox="0 0 498.3 319.93">
  <!-- Generator: Adobe Illustrator 30.0.0, SVG Export Plug-In . SVG Version: 2.1.1 Build 123)  -->
  <defs>
    <style>
      .st0 {
        fill: #eeff7c;
      }
    </style>
  </defs>
  <g id="Layer_2">
    <path class="st0" d="M421.83,56.64C372.56,16.73,317.5,4.13,281.8.94h-65.83c-35.7,3.13-90.99,15.65-140.42,55.7C31.19,92.59,10.2,135.62.95,158.83c9.5,23.34,30.65,66,74.59,102.22,69.57,57.29,147.56,58.47,173.16,58.47s103.57-1.18,173.13-58.47c43.94-36.22,65.09-78.88,74.59-102.22-9.26-23.21-30.24-66.24-74.59-102.19h0ZM406.34,189.56c0,.11-.03.19-.05.3-5.44,24.58-15.82,49.63-34.8,70.77-27.41,30.48-64.24,43.45-91.34,49.35-20.74,4.53-42.18,4.53-62.92,0-27.11-5.9-63.94-18.87-91.34-49.35-18.98-21.15-29.36-46.19-34.8-70.77-.03-.11-.05-.19-.05-.3-4.48-20.21-4.48-41.25,0-61.46,0-.11.03-.19.05-.3,5.44-24.58,15.82-49.63,34.8-70.77C157.58,21.76,201.88,9.95,229.15,5.39c-12.66,7.42-20.71,21.81-18.81,37.96,2.09,17.49,16.31,31.64,33.86,33.59,23.26,2.58,42.98-15.57,42.98-38.31,0-14.2-7.72-26.58-19.17-33.29,27.27,4.56,71.71,16.34,103.48,51.69,18.98,21.15,29.36,46.19,34.8,70.77.03.11.05.19.05.3,4.48,20.21,4.48,41.25,0,61.46h0Z"/>
  </g>
</svg>